<svg xmlns="http://www.w3.org/2000/svg" width="160" height="160" viewBox="0 0 160 160">
  <defs>
    <style>
      .cls-1 {
        fill: #fff;
      }

      .cls-1, .cls-3 {
        fill-rule: evenodd;
      }

      .cls-2 {
        fill: #ddd;
      }

      .cls-3 {
        fill: #999;
      }
    </style>
  </defs>
  <g id="图片上传" transform="translate(-904 -158.995)">
    <g id="组_152" data-name="组 152" transform="translate(1 -0.005)">
      <g id="组_151" data-name="组 151">
        <path id="路径_58" data-name="路径 58" class="cls-1" d="M909.04,318.5a5.546,5.546,0,0,1-5.54-5.54V165.04a5.546,5.546,0,0,1,5.54-5.54h147.92a5.546,5.546,0,0,1,5.54,5.54V312.96a5.546,5.546,0,0,1-5.54,5.54Z"/>
        <path id="路径_59" data-name="路径 59" class="cls-2" d="M1056.96,160a5.045,5.045,0,0,1,5.04,5.04V312.96a5.045,5.045,0,0,1-5.04,5.04H909.04a5.044,5.044,0,0,1-5.04-5.04V165.04a5.045,5.045,0,0,1,5.04-5.04h147.92m0-1H909.04a6.041,6.041,0,0,0-6.04,6.04V312.96a6.041,6.041,0,0,0,6.04,6.04h147.92a6.041,6.041,0,0,0,6.04-6.04V165.04a6.035,6.035,0,0,0-6.04-6.04Z"/>
      </g>
    </g>
    <g id="组_153" data-name="组 153" transform="translate(48.21 48.165)">
      <path id="路径_60" data-name="路径 60" class="cls-3" d="M935.735,186.83a8.007,8.007,0,1,0,5.654,2.345,7.944,7.944,0,0,0-5.654-2.345Zm28.06-16.06h-12.43l-6.965-7.394a2.292,2.292,0,0,0-1.54-.547H928.7a2.266,2.266,0,0,0-1.53.547l-6.985,7.394H907.794a4.012,4.012,0,0,0-4,4v40.05a4.006,4.006,0,0,0,4,4h55.991a4.012,4.012,0,0,0,4-4v-40.05a4,4,0,0,0-3.994-4Zm-34.34-3.836H942.1l3.617,3.836H925.839l3.617-3.836Zm6.28,39.911a12.015,12.015,0,1,1,12-12.015,12.008,12.008,0,0,1-12,12.015Z"/>
    </g>
  </g>
</svg>
