<svg xmlns="http://www.w3.org/2000/svg" width="32" height="32" viewBox="0 0 32 32">
  <defs>
    <style>
      .cls-1 {
        fill: none;
      }

      .cls-2 {
        fill: #999;
      }
    </style>
  </defs>
  <g id="联系人" transform="translate(2 2)">
    <rect id="Rectangle-37-Copy-26" class="cls-1" width="32" height="32" transform="translate(-2 -2)"/>
    <g id="contacts" transform="translate(2 2)">
      <path id="Shape" class="cls-2" d="M5.143,16.038a.964.964,0,0,0-.964-.964H.964A.964.964,0,0,0,.964,17H4.179A.964.964,0,0,0,5.143,16.038ZM.964,7.413H4.179a.964.964,0,0,0,0-1.929H.964a.964.964,0,0,0,0,1.929Z" transform="translate(0 0.783)"/>
      <path id="Shape-2" data-name="Shape" class="cls-2" d="M21.857,0H3.429A1.927,1.927,0,0,0,1.5,1.929v1.5a.964.964,0,0,0,1.929,0v-1.5H21.857V22.071H3.429V20.625h0c0-.019,0-.035,0-.054a.964.964,0,0,0-1.929,0,.36.36,0,0,0,0,.054h0v1.446A1.927,1.927,0,0,0,3.429,24H21.857a1.927,1.927,0,0,0,1.929-1.929V1.929A1.927,1.927,0,0,0,21.857,0Z" transform="translate(0.214)"/>
      <path id="Shape-3" data-name="Shape" class="cls-2" d="M.964,12.348H4.179a.964.964,0,0,0,0-1.929H.964a.964.964,0,0,0,0,1.929Zm12.739.937A4.393,4.393,0,1,1,18.1,8.893,4.4,4.4,0,0,1,13.7,13.286Zm0-6.857a2.464,2.464,0,1,0,2.464,2.464A2.468,2.468,0,0,0,13.7,6.429Z" transform="translate(0 0.643)"/>
      <path id="Shape-4" data-name="Shape" class="cls-2" d="M17.794,17.263a.96.96,0,0,1-.945-.785,4.181,4.181,0,0,0-8.213,0,.965.965,0,0,1-.946.785,1.014,1.014,0,0,1-.179-.016.965.965,0,0,1-.769-1.128,6.108,6.108,0,0,1,12,0,.965.965,0,0,1-.769,1.128,1.015,1.015,0,0,1-.18.016Z" transform="translate(0.961 1.594)"/>
    </g>
  </g>
</svg>
