<svg xmlns="http://www.w3.org/2000/svg" width="32" height="32" viewBox="0 0 32 32">
  <defs>
    <style>
      .cls-1 {
        fill: #ddd;
      }

      .cls-1, .cls-2 {
        fill-rule: evenodd;
      }

      .cls-2 {
        fill: #fff;
      }
    </style>
  </defs>
  <g id="删除图片" transform="translate(-1530 375.995)">
    <path id="路径_65" data-name="路径 65" class="cls-1" d="M1752,159a16,16,0,1,0,16,16,16,16,0,0,0-16-16Z" transform="translate(-206 -534.995)"/>
    <path id="路径_66" data-name="路径 66" class="cls-2" d="M1759.36,168.72a1.017,1.017,0,0,0,.02-1.42h0a1.017,1.017,0,0,0-1.42-.02l-6.13,6.01-6.13-6.01a1,1,0,0,0-1.42.02h0a1,1,0,0,0,.02,1.42l6.1,5.98-6.1,5.98a1.017,1.017,0,0,0-.02,1.42h0a1.017,1.017,0,0,0,1.42.02l6.13-6.01,6.13,6.01a1,1,0,0,0,1.42-.02h0a1,1,0,0,0-.02-1.42l-6.1-5.97,6.1-5.99Z" transform="translate(-206 -534.995)"/>
  </g>
</svg>
