<svg xmlns="http://www.w3.org/2000/svg" xmlns:xlink="http://www.w3.org/1999/xlink" width="32" height="32" viewBox="0 0 32 32">
  <defs>
    <style>
      .cls-1 {
        clip-path: url(#clip-path);
      }

      .cls-2 {
        fill: #999;
      }
    </style>
    <clipPath id="clip-path">
      <rect id="矩形_285" data-name="矩形 285" width="32" height="32" transform="translate(1684 158.995)"/>
    </clipPath>
  </defs>
  <g id="down" transform="translate(1719 196.995) rotate(180)">
    <g id="up" class="cls-1" transform="translate(3 6)">
      <path id="路径_64" data-name="路径 64" class="cls-2" d="M1709,175.63a1.406,1.406,0,0,0-.3-.86l-10.66-13.26a1.376,1.376,0,0,0-1.07-.51,1.356,1.356,0,0,0-1.06.51l-10.61,13.21a1.366,1.366,0,1,0,2.13,1.71l9.54-11.88,9.6,11.94a1.366,1.366,0,0,0,1.92.21A1.39,1.39,0,0,0,1709,175.63Z" transform="translate(3 5.995)"/>
    </g>
  </g>
</svg>
