<svg xmlns="http://www.w3.org/2000/svg" xmlns:xlink="http://www.w3.org/1999/xlink" width="32" height="32" viewBox="0 0 32 32">
  <defs>
    <style>
      .cls-1, .cls-3 {
        fill: #fff;
      }

      .cls-1 {
        stroke: #707070;
      }

      .cls-2 {
        clip-path: url(#clip-path);
      }

      .cls-4 {
        fill: none;
      }

      .cls-5, .cls-6 {
        stroke: none;
      }

      .cls-6 {
        fill: #999;
      }
    </style>
    <clipPath id="clip-path">
      <rect id="矩形_403" data-name="矩形 403" class="cls-1" width="32" height="32" transform="translate(600 160)"/>
    </clipPath>
  </defs>
  <g id="筛选" transform="translate(-628 -438)">
    <g id="蒙版组_5" data-name="蒙版组 5" class="cls-2" transform="translate(28 278)">
      <g id="组_2458" data-name="组 2458" transform="translate(204 -23)">
        <g id="联合_9" data-name="联合 9" class="cls-3" transform="translate(3363 4384.5)">
          <path class="cls-5" d="M -2942.99951171875 -4172.5 L -2948.99951171875 -4172.5 C -2949.275634765625 -4172.5 -2949.500244140625 -4172.72412109375 -2949.500244140625 -4173 C -2949.500244140625 -4173.275390625 -2949.275634765625 -4173.49951171875 -2948.99951171875 -4173.49951171875 L -2942.99951171875 -4173.49951171875 C -2942.72412109375 -4173.49951171875 -2942.5 -4173.275390625 -2942.5 -4173 C -2942.5 -4172.72412109375 -2942.72412109375 -4172.5 -2942.99951171875 -4172.5 Z M -2941.000244140625 -4177.50048828125 L -2948.99951171875 -4177.50048828125 C -2949.275634765625 -4177.50048828125 -2949.500244140625 -4177.724609375 -2949.500244140625 -4178 C -2949.500244140625 -4178.27587890625 -2949.275634765625 -4178.5 -2948.99951171875 -4178.5 L -2941.000244140625 -4178.5 C -2940.72412109375 -4178.5 -2940.49951171875 -4178.27587890625 -2940.49951171875 -4178 C -2940.49951171875 -4177.724609375 -2940.72412109375 -4177.50048828125 -2941.000244140625 -4177.50048828125 Z M -2939 -4182.5 L -2948.99951171875 -4182.5 C -2949.275634765625 -4182.5 -2949.500244140625 -4182.724609375 -2949.500244140625 -4183.00048828125 C -2949.500244140625 -4183.27587890625 -2949.275634765625 -4183.5 -2948.99951171875 -4183.5 L -2939 -4183.5 C -2938.724365234375 -4183.5 -2938.500244140625 -4183.27587890625 -2938.500244140625 -4183.00048828125 C -2938.500244140625 -4182.724609375 -2938.724365234375 -4182.5 -2939 -4182.5 Z"/>
          <path class="cls-6" d="M -2942.99951171875 -4172 L -2948.99951171875 -4172 C -2949.5517578125 -4172 -2950.000244140625 -4172.44775390625 -2950.000244140625 -4173 C -2950.000244140625 -4173.55224609375 -2949.5517578125 -4173.99951171875 -2948.99951171875 -4173.99951171875 L -2942.99951171875 -4173.99951171875 C -2942.4482421875 -4173.99951171875 -2942 -4173.55224609375 -2942 -4173 C -2942 -4172.44775390625 -2942.4482421875 -4172 -2942.99951171875 -4172 Z M -2941.000244140625 -4177.00048828125 L -2948.99951171875 -4177.00048828125 C -2949.5517578125 -4177.00048828125 -2950.000244140625 -4177.44775390625 -2950.000244140625 -4178 C -2950.000244140625 -4178.55224609375 -2949.5517578125 -4179 -2948.99951171875 -4179 L -2941.000244140625 -4179 C -2940.447998046875 -4179 -2939.99951171875 -4178.55224609375 -2939.99951171875 -4178 C -2939.99951171875 -4177.44775390625 -2940.447998046875 -4177.00048828125 -2941.000244140625 -4177.00048828125 Z M -2939 -4182 L -2948.99951171875 -4182 C -2949.5517578125 -4182 -2950.000244140625 -4182.4482421875 -2950.000244140625 -4183.00048828125 C -2950.000244140625 -4183.5517578125 -2949.5517578125 -4184 -2948.99951171875 -4184 L -2939 -4184 C -2938.447509765625 -4184 -2938.000244140625 -4183.5517578125 -2938.000244140625 -4183.00048828125 C -2938.000244140625 -4182.4482421875 -2938.447509765625 -4182 -2939 -4182 Z"/>
        </g>
        <g id="联合_10" data-name="联合 10" class="cls-4" transform="translate(3348 4369)">
          <path class="cls-5" d="M-2948-4156a2,2,0,0,1-2-2v-9a2,2,0,0,1,2-2h9a2,2,0,0,1,2,2v9a2,2,0,0,1-2,2Zm15-15a2,2,0,0,1-2-2v-9a2,2,0,0,1,2-2h9a2,2,0,0,1,2,2v9a2,2,0,0,1-2,2Zm-15,0a2,2,0,0,1-2-2v-9a2,2,0,0,1,2-2h9a2,2,0,0,1,2,2v9a2,2,0,0,1-2,2Z"/>
          <path class="cls-6" d="M -2939 -4157.99951171875 L -2938.99951171875 -4158 L -2939 -4167 L -2948.000244140625 -4167 L -2947.999755859375 -4157.99951171875 L -2939 -4157.99951171875 M -2924 -4172.99951171875 L -2923.999755859375 -4173 L -2924 -4182 L -2933.000244140625 -4182 L -2933 -4172.99951171875 L -2924 -4172.99951171875 M -2939 -4172.99951171875 L -2938.99951171875 -4173 L -2939 -4182 L -2948.000244140625 -4182 L -2947.999755859375 -4172.99951171875 L -2939 -4172.99951171875 M -2939 -4155.99951171875 L -2947.999755859375 -4155.99951171875 C -2949.1044921875 -4155.99951171875 -2950.000244140625 -4156.8955078125 -2950.000244140625 -4158 L -2950.000244140625 -4167 C -2950.000244140625 -4168.1044921875 -2949.1044921875 -4169 -2947.999755859375 -4169 L -2939 -4169 C -2937.895263671875 -4169 -2936.99951171875 -4168.1044921875 -2936.99951171875 -4167 L -2936.99951171875 -4158 C -2936.99951171875 -4156.8955078125 -2937.895263671875 -4155.99951171875 -2939 -4155.99951171875 Z M -2924 -4170.99951171875 L -2933 -4170.99951171875 C -2934.1044921875 -4170.99951171875 -2935.000244140625 -4171.89501953125 -2935.000244140625 -4173 L -2935.000244140625 -4182 C -2935.000244140625 -4183.1044921875 -2934.1044921875 -4184 -2933 -4184 L -2924 -4184 C -2922.895263671875 -4184 -2921.999755859375 -4183.1044921875 -2921.999755859375 -4182 L -2921.999755859375 -4173 C -2921.999755859375 -4171.89501953125 -2922.895263671875 -4170.99951171875 -2924 -4170.99951171875 Z M -2939 -4170.99951171875 L -2947.999755859375 -4170.99951171875 C -2949.1044921875 -4170.99951171875 -2950.000244140625 -4171.89501953125 -2950.000244140625 -4173 L -2950.000244140625 -4182 C -2950.000244140625 -4183.1044921875 -2949.1044921875 -4184 -2947.999755859375 -4184 L -2939 -4184 C -2937.895263671875 -4184 -2936.99951171875 -4183.1044921875 -2936.99951171875 -4182 L -2936.99951171875 -4173 C -2936.99951171875 -4171.89501953125 -2937.895263671875 -4170.99951171875 -2939 -4170.99951171875 Z"/>
        </g>
      </g>
    </g>
  </g>
</svg>
