<svg xmlns="http://www.w3.org/2000/svg" width="160" height="160" viewBox="0 0 160 160">
  <defs>
    <style>
      .cls-1 {
        fill: #00a1e9;
      }
    </style>
  </defs>
  <path id="_6_-_了解更多" data-name="6 - 了解更多" class="cls-1" d="M2076,159a80,80,0,1,0,80,80A79.991,79.991,0,0,0,2076,159Zm-1.01,126.97a6.77,6.77,0,1,1,6.77-6.77A6.775,6.775,0,0,1,2074.99,285.97Zm29.03-65.88c-.39,7.23-2.61,12.94-13.7,24.03-5.63,5.63-9.17,9.84-9.53,13.55a5.62,5.62,0,0,1-5.59,5.08c-.19,0-.38-.02-.56-.03a5.642,5.642,0,0,1-5.05-6.16c.77-7.8,6.48-14.09,12.78-20.39,10.08-10.08,10.25-13.28,10.42-16.67a14.487,14.487,0,0,0-4.13-10.8,17.556,17.556,0,0,0-12.69-5.41h-.03a16.837,16.837,0,0,0-16.77,16.8,5.63,5.63,0,1,1-11.26,0,28.031,28.031,0,0,1,27.99-28.04,28.835,28.835,0,0,1,20.91,8.91A25.491,25.491,0,0,1,2104.02,220.09Z" transform="translate(-1996 -159)"/>
</svg>
