<svg xmlns="http://www.w3.org/2000/svg" width="32" height="32" viewBox="0 0 32 32">
  <defs>
    <style>
      .cls-1 {
        fill: none;
      }

      .cls-2 {
        fill: #999;
      }
    </style>
  </defs>
  <g id="电话" transform="translate(2 2)">
    <rect id="Rectangle-48-Copy-36" class="cls-1" width="32" height="32" transform="translate(-2 -2)"/>
    <g id="phone" transform="translate(2 2)">
      <path id="Shape" class="cls-2" d="M22.658,2.7C21.844,1.442,20.72,0,19.246,0a2.377,2.377,0,0,0-1.7.758,15.8,15.8,0,0,0-2.053,2.465,3.694,3.694,0,0,0-.777,3.084A6.3,6.3,0,0,0,16.36,8.374l.011.011a13.123,13.123,0,0,1,1.015,1.095c.16.227-.04.841-.523,1.6a23.016,23.016,0,0,1-2.627,3.148,27.923,27.923,0,0,1-2.638,2.28,3.755,3.755,0,0,1-1.917.924.317.317,0,0,1-.2-.053,13.213,13.213,0,0,1-1.105-1.025,6.256,6.256,0,0,0-2.067-1.645,2.323,2.323,0,0,0-.681-.1,4.878,4.878,0,0,0-2.662,1.055,16.459,16.459,0,0,0-2.2,1.874,2.334,2.334,0,0,0-.75,1.941C.16,20.854,1.527,21.9,2.7,22.662A8.481,8.481,0,0,0,7.4,24c3.61,0,7.671-1.995,11.145-5.468a22.39,22.39,0,0,0,3.1-3.848A16.26,16.26,0,0,0,23.523,10.6,9.358,9.358,0,0,0,22.658,2.7ZM21.7,10.066a14.3,14.3,0,0,1-1.666,3.607A20.286,20.286,0,0,1,17.2,17.193a21.5,21.5,0,0,1-2.473,2.128,17.079,17.079,0,0,1-2.537,1.546,13.037,13.037,0,0,1-2.483.932,9.311,9.311,0,0,1-2.315.31A6.62,6.62,0,0,1,3.727,21.07,8.1,8.1,0,0,1,2.352,20a1.372,1.372,0,0,1-.454-.721c-.005-.053-.019-.182.2-.4a14.337,14.337,0,0,1,1.939-1.655,3.141,3.141,0,0,1,1.583-.718.449.449,0,0,1,.1.011,2.309,2.309,0,0,1,.32.243c.254.219.558.515.993.943a13.184,13.184,0,0,0,1.332,1.22l.037.027a2.23,2.23,0,0,0,1.274.385,3.532,3.532,0,0,0,1.388-.318,8.719,8.719,0,0,0,1.64-.967,29.639,29.639,0,0,0,2.833-2.443l.027-.024.037-.04a24.408,24.408,0,0,0,2.86-3.442,6.788,6.788,0,0,0,.652-1.274,3.392,3.392,0,0,0,.216-.972,2.28,2.28,0,0,0-.4-1.474A11.883,11.883,0,0,0,17.769,7.1l-.059-.061c-.425-.427-.732-.742-.945-.991a2.138,2.138,0,0,1-.246-.326c-.053-.211.069-.7.566-1.469a14.254,14.254,0,0,1,1.8-2.152l0,0a.579.579,0,0,1,.369-.206,1.25,1.25,0,0,1,.694.4,8,8,0,0,1,1.129,1.434,6.458,6.458,0,0,1,1,2.846A9.217,9.217,0,0,1,21.7,10.066Z" transform="translate(-0.004)"/>
    </g>
  </g>
</svg>
