<svg xmlns="http://www.w3.org/2000/svg" width="32" height="32" viewBox="0 0 32 32">
  <defs>
    <style>
      .cls-1 {
        fill: none;
      }

      .cls-2 {
        fill: #999;
      }
    </style>
  </defs>
  <g id="备注" transform="translate(2 2)">
    <rect id="Rectangle-44" class="cls-1" width="32" height="32" transform="translate(-2 -2)"/>
    <g id="edit" transform="translate(2 2)">
      <path id="Shape" class="cls-2" d="M23.034,22.07H.964A.964.964,0,0,0,.964,24h22.07a.964.964,0,0,0,0-1.928Zm-16.82-3.16,6.307-2.67a.888.888,0,0,0,.273-.182L23.433,5.418a1.935,1.935,0,0,0,.005-2.732L21.314.562a1.935,1.935,0,0,0-2.732.005L7.944,11.206a.857.857,0,0,0-.182.273l-2.673,6.3a.858.858,0,0,0,1.125,1.125ZM19.946,1.931l.005-.005,2.121,2.121-.005.005L20.406,5.713,18.285,3.592ZM9.455,12.422l7.467-7.467,2.121,2.121-7.467,7.467L7.9,16.1Z" transform="translate(0 -0.001)"/>
    </g>
  </g>
</svg>
