<svg xmlns="http://www.w3.org/2000/svg" xmlns:xlink="http://www.w3.org/1999/xlink" width="40" height="40" viewBox="0 0 40 40">
  <defs>
    <style>
      .cls-1 {
        clip-path: url(#clip-path);
      }

      .cls-2 {
        fill: #00a1e9;
      }
    </style>
    <clipPath id="clip-path">
      <rect id="矩形_281" data-name="矩形 281" width="40" height="40" transform="translate(1144 159)"/>
    </clipPath>
  </defs>
  <g id="_2_-_门店地址" data-name="2 - 门店地址" transform="translate(-1144 -159)">
    <g id="组_148" data-name="组 148" class="cls-1">
      <path id="路径_55" data-name="路径 55" class="cls-2" d="M1178.69,169.33a14.031,14.031,0,0,0-3.51-4.34,16.819,16.819,0,0,0-5.1-2.92A17.735,17.735,0,0,0,1164,161h0a17.777,17.777,0,0,0-6.08,1.07,16.819,16.819,0,0,0-5.1,2.92,14.147,14.147,0,0,0-3.51,4.34,11.637,11.637,0,0,0-1.31,5.34,17.931,17.931,0,0,0,1.93,7.84,29.921,29.921,0,0,0,4.45,6.55,48.348,48.348,0,0,0,8.69,7.65,1.636,1.636,0,0,0,1.86,0,48.344,48.344,0,0,0,8.69-7.65,29.792,29.792,0,0,0,4.45-6.55,17.964,17.964,0,0,0,1.93-7.84A11.636,11.636,0,0,0,1178.69,169.33Zm-3.32,11.88a26.845,26.845,0,0,1-4.01,5.88,44.76,44.76,0,0,1-7.37,6.62,45.173,45.173,0,0,1-7.37-6.62,26.431,26.431,0,0,1-4-5.88,14.954,14.954,0,0,1-1.63-6.53,8.732,8.732,0,0,1,.98-3.98,10.993,10.993,0,0,1,2.77-3.41,14,14,0,0,1,4.19-2.4,14.717,14.717,0,0,1,5.05-.89h.01a14.718,14.718,0,0,1,5.05.89,13.872,13.872,0,0,1,4.19,2.4,11.139,11.139,0,0,1,2.77,3.41,8.7,8.7,0,0,1,.98,3.98A14.678,14.678,0,0,1,1175.37,181.21Z"/>
      <path id="路径_56" data-name="路径 56" class="cls-2" d="M1164,168a7.989,7.989,0,1,0,5.66,2.34A7.966,7.966,0,0,0,1164,168Zm3.54,11.53A5,5,0,1,1,1169,176,4.961,4.961,0,0,1,1167.54,179.53Z"/>
    </g>
  </g>
</svg>
