<svg xmlns="http://www.w3.org/2000/svg" width="32" height="32" viewBox="0 0 32 32">
  <defs>
    <style>
      .cls-1 {
        fill: none;
      }

      .cls-2 {
        fill: #999;
      }
    </style>
  </defs>
  <g id="门店" transform="translate(2 2)">
    <rect id="Rectangle-44-Copy-6" class="cls-1" width="32" height="32" transform="translate(-2 -2)"/>
    <g id="isv" transform="translate(2 2)">
      <path id="Shape" class="cls-2" d="M21.321,14.464a.964.964,0,0,0-.964.964v6.643H3.643V15.429a.964.964,0,0,0-1.929,0v6.643A1.927,1.927,0,0,0,3.643,24H20.357a1.927,1.927,0,0,0,1.929-1.929V15.429A.964.964,0,0,0,21.321,14.464ZM22.071,0H1.929A1.927,1.927,0,0,0,0,1.929V7.379a4.647,4.647,0,0,0,8.33,2.834,4.648,4.648,0,0,0,7.353.019A4.648,4.648,0,0,0,24,7.379V1.929A1.927,1.927,0,0,0,22.071,0ZM7.366,4.647V7.379a2.719,2.719,0,1,1-5.437,0V1.929H7.366ZM12.013,10.1A2.717,2.717,0,0,1,9.295,7.379V1.929h5.411V7.379c0,.1,0,.2.011.305A2.721,2.721,0,0,1,12.013,10.1ZM22.071,7.379a2.719,2.719,0,1,1-5.437,0V1.929h5.437Z"/>
    </g>
  </g>
</svg>
