<svg xmlns="http://www.w3.org/2000/svg" width="32" height="32" viewBox="0 0 32 32">
  <defs>
    <style>
      .cls-1 {
        fill: none;
      }

      .cls-2 {
        fill: #999;
      }
    </style>
  </defs>
  <g id="时间" transform="translate(2 2)">
    <rect id="Rectangle-45-Copy-5" class="cls-1" width="32" height="32" transform="translate(-2 -2)"/>
    <g id="calendar" transform="translate(2 2)">
      <path id="Shape" class="cls-2" d="M22.071,1.714H18.857V.964a.964.964,0,1,0-1.929,0v.75H7.071V.964a.964.964,0,1,0-1.929,0v.75H1.929A1.927,1.927,0,0,0,0,3.643V22.071A1.927,1.927,0,0,0,1.929,24H22.071A1.929,1.929,0,0,0,24,22.071V3.643A1.927,1.927,0,0,0,22.071,1.714ZM1.929,3.643H5.143v.536a.964.964,0,1,0,1.929,0V3.643h9.857v.536a.964.964,0,1,0,1.929,0V3.643h3.214v3H1.929ZM22.071,22.071H1.929V8.571H22.071ZM6,12H7.714a.857.857,0,0,1,0,1.714H6A.857.857,0,1,1,6,12Zm5.143,0h1.714a.857.857,0,0,1,0,1.714H11.143a.857.857,0,0,1,0-1.714Zm5.143,0H18a.857.857,0,0,1,0,1.714H16.286a.857.857,0,0,1,0-1.714ZM6,17.2H7.714a.857.857,0,0,1,0,1.714H6A.857.857,0,0,1,6,17.2Zm5.143,0h1.714a.857.857,0,0,1,0,1.714H11.143a.857.857,0,0,1,0-1.714Z"/>
    </g>
  </g>
</svg>
