<svg xmlns="http://www.w3.org/2000/svg" width="24" height="24" viewBox="0 0 24 24">
  <defs>
    <style>
      .cls-1 {
        fill: #999;
      }
    </style>
  </defs>
  <path id="客户分类提示" class="cls-1" d="M640,230a12,12,0,1,0,12,12A12,12,0,0,0,640,230Zm7.291,19.291a10.252,10.252,0,1,1,2.213-3.278A10.247,10.247,0,0,1,647.291,249.291Zm-7.413-3.731a.79.79,0,0,1-.084,0,.844.844,0,0,1-.757-.923,5.424,5.424,0,0,1,1.917-3.059c1.512-1.511,1.537-1.992,1.563-2.5a2.167,2.167,0,0,0-.619-1.62,2.633,2.633,0,0,0-1.9-.811h0a2.524,2.524,0,0,0-2.515,2.52.844.844,0,0,1-1.688,0,4.2,4.2,0,0,1,4.2-4.207,4.328,4.328,0,0,1,3.136,1.336,3.843,3.843,0,0,1,1.08,2.871c-.058,1.085-.391,1.94-2.055,3.6-.844.844-1.376,1.477-1.43,2.032A.844.844,0,0,1,639.878,245.56Zm-1.045,2.468a1.015,1.015,0,1,0,1.015-1.015,1.014,1.014,0,0,0-1.015,1.015Z" transform="translate(-628 -230)"/>
</svg>
