<svg xmlns="http://www.w3.org/2000/svg" width="32" height="32" viewBox="0 0 32 32">
  <defs>
    <style>
      .cls-1 {
        fill: none;
      }

      .cls-2 {
        fill: #999;
      }
    </style>
  </defs>
  <g id="拜访" transform="translate(2 2)">
    <rect id="Rectangle-48-Copy-29" class="cls-1" width="32" height="32" transform="translate(-2 -2)"/>
    <g id="team" transform="translate(3 2)">
      <path id="Shape" class="cls-2" d="M20.137,11.392a6.362,6.362,0,0,0-1.883-1.253A5.519,5.519,0,0,0,20.273,8.4a5.189,5.189,0,0,0,.968-3.019A5.5,5.5,0,0,0,15.632.012,5.742,5.742,0,0,0,12.389,1a5.409,5.409,0,0,0-1.883,2.2A5.7,5.7,0,0,0,6.4,1.487,5.5,5.5,0,0,0,.789,6.86a5.187,5.187,0,0,0,.968,3.017,5.552,5.552,0,0,0,2.019,1.737,6.327,6.327,0,0,0-1.883,1.253A5.946,5.946,0,0,0,.019,17.185v4.4a2.484,2.484,0,0,0,2.532,2.426h7.7a2.546,2.546,0,0,0,2.329-1.475h6.909a2.485,2.485,0,0,0,2.532-2.426v-4.4A5.965,5.965,0,0,0,20.137,11.392ZM13.069,2.93a3.736,3.736,0,0,1,5.126,0,3.368,3.368,0,0,1,0,4.911,3.736,3.736,0,0,1-5.126,0,3.369,3.369,0,0,1,0-4.911ZM2.769,6.86A3.368,3.368,0,0,1,3.832,4.4a3.736,3.736,0,0,1,5.126,0,3.369,3.369,0,0,1,0,4.911,3.739,3.739,0,0,1-5.129,0A3.38,3.38,0,0,1,2.769,6.86Zm8.021,14.723a.5.5,0,0,1-.162.369.555.555,0,0,1-.385.155h-7.7A.536.536,0,0,1,2,21.583v-4.4a4.092,4.092,0,0,1,1.291-2.974,4.513,4.513,0,0,1,6.208,0,.4.4,0,0,1,.036.037l.008.011a4.09,4.09,0,0,1,1.247,2.929ZM10.3,12.356a6.357,6.357,0,0,0-1.283-.746,5.508,5.508,0,0,0,2.5-2.568,5.614,5.614,0,0,0,1.487,1.093,6.379,6.379,0,0,0-1.883,1.253A6.545,6.545,0,0,0,10.3,12.356Zm9.728,7.754a.537.537,0,0,1-.547.524h-6.7V17.182a5.86,5.86,0,0,0-1.065-3.372,4.2,4.2,0,0,1,.817-1.074,4.51,4.51,0,0,1,6.208,0,4.093,4.093,0,0,1,1.291,2.974Z" transform="translate(-0.019 -0.012)"/>
    </g>
  </g>
</svg>
