<svg t="1615452851340" class="icon" viewBox="0 0 1024 1024" version="1.1" xmlns="http://www.w3.org/2000/svg" p-id="4988" id="mx_n_1615452851341" width="200" height="200"><path d="M128.46 725.82c-1.84-3.6-3.66-7.3-5.44-11.02l18-8.58c1.68 3.54 3.42 7.08 5.18 10.5zM112.66 691.2c-3.22-8-6.22-16-8.94-24.18l18.96-6.38c2.6 7.72 5.46 15.48 8.52 23.04z m-16.44-48.84c-2.24-8.26-4.26-16.7-6-25.06l19.58-4c1.66 8 3.58 16 5.72 24zM85.74 592c-1.24-8.46-2.24-17.08-2.98-25.6l20-1.72c0.7 8.12 1.66 16.34 2.84 24.42zM81.28 540.58c-0.12-4.1-0.16-8.24-0.16-12.28h20c0 3.86 0 7.8 0.16 11.72zM858.52 294.56c-2.18-3.18-4.44-6.42-6.74-9.58l16.18-11.74c2.4 3.32 4.78 6.7 7.06 10zM929.3 495.04c-0.56-7.12-1.32-14.3-2.26-21.38l19.82-2.6c0.98 7.42 1.78 14.96 2.36 22.4z m-5.62-42.62c-1.3-7.02-2.8-14-4.46-21.02l19.44-4.66c1.74 7.28 3.32 14.7 4.68 22z m-10-41.8c-2-6.86-4.26-13.74-6.62-20.46l18.86-6.66c2.48 7.04 4.82 14.26 6.94 21.44zM899.38 370c-2.72-6.58-5.66-13.2-8.72-19.64l18-8.58c3.22 6.76 6.3 13.7 9.14 20.6z m-18.46-38.82c-3.4-6.28-7-12.56-10.72-18.64l17.08-10.42c3.9 6.38 7.68 12.96 11.24 19.54zM950.62 528.3h-20c0-4 0-7.86-0.16-11.72l20-0.56c0.1 3.98 0.16 8.18 0.16 12.28zM101.12 528.3h-20a434.78 434.78 0 0 1 695.26-348l-12 16a411.22 411.22 0 0 0-248.52-82.74c-228.7 0-414.74 186.06-414.74 414.74zM515.86 963.06a430.48 430.48 0 0 1-266.86-91.52l12.28-15.78a410.66 410.66 0 0 0 254.58 87.3c228.7 0 414.76-186 414.76-414.76h20a434.76 434.76 0 0 1-434.76 434.76z" fill="#EFEFEF" p-id="4989"></path><path d="M515.86 528.3m-358.56 0a358.56 358.56 0 1 0 717.12 0 358.56 358.56 0 1 0-717.12 0Z" fill="#FFFFFF" p-id="4990"></path><path d="M515.86 528.3m-254.5 0a254.5 254.5 0 1 0 509 0 254.5 254.5 0 1 0-509 0Z" fill="#cdcdcd" p-id="4991" data-spm-anchor-id="a313x.7781069.0.i7" class=""></path><path d="M515.86 902.86c-206.54 0-374.56-168-374.56-374.56s168-374.56 374.56-374.56a373.62 373.62 0 0 1 125.04 21.38 16 16 0 0 1-10.68 30.16 341.74 341.74 0 0 0-114.36-19.54c-188.88 0-342.56 153.66-342.56 342.56s153.66 342.56 342.56 342.56 342.56-153.66 342.56-342.56a338.94 338.94 0 0 0-74-212.72 16 16 0 0 1 25.08-19.88 370.64 370.64 0 0 1 80.98 232.62c-0.06 206.52-168.08 374.54-374.62 374.54z" fill="#18659E" p-id="4992"></path><path d="M693 496.62H312.4a16 16 0 0 1 0-32h342l-64.74-64.74a16 16 0 0 1 22.62-22.62l92 92a16 16 0 0 1-11.32 27.32zM404.44 683.86a16 16 0 0 1-11.32-4.68l-92-92a16 16 0 0 1 11.32-27.32H693a16 16 0 0 1 0 32h-342l64.74 64.74a16 16 0 0 1-11.32 27.32z" fill="#18659E" p-id="4993"></path></svg>