<svg t="1615452894986" class="icon" viewBox="0 0 1024 1024" version="1.1" xmlns="http://www.w3.org/2000/svg" p-id="5440" width="200" height="200"><path d="M432 272l80 76.8 73.6-73.6c22.4-22.4 54.4-25.6 80-6.4l3.2 3.2 140.8 140.8c22.4 22.4 25.6 54.4 6.4 80l-3.2 3.2-252.8 252.8c-12.8 12.8-32 19.2-48 19.2h-6.4c-16 0-32-3.2-44.8-16l-252.8-252.8c-22.4-22.4-25.6-60.8-3.2-86.4l140.8-140.8c25.6-22.4 60.8-22.4 86.4 0z m32 307.2c-12.8-12.8-12.8-32 0-44.8 12.8-12.8 32-12.8 44.8 0l89.6 89.6 51.2-51.2-259.2-252.8L256 454.4l249.6 249.6 6.4 6.4 9.6-6.4 35.2-35.2-92.8-89.6z m169.6-259.2l-73.6 73.6 137.6 134.4 73.6-73.6-137.6-134.4z" p-id="5441" fill="#8a8a8a"></path></svg>